<svg width="17" height="15" viewBox="0 0 17 15" fill="none" xmlns="http://www.w3.org/2000/svg">
<path fill-rule="evenodd" clip-rule="evenodd" d="M8.5 1.18016C10.5328 -0.489899 13.5751 -0.386848 15.4836 1.48538C16.4619 2.4443 17 3.72024 17 5.078C17 6.43654 16.4619 7.7117 15.4836 8.67062L9.40693 14.6318C9.15674 14.8773 8.82797 15 8.5 15C8.17203 15 7.84326 14.8773 7.59307 14.6318L1.51637 8.67062C0.538066 7.7117 0 6.43576 0 5.078C0 3.72024 0.538066 2.44509 1.51637 1.48538C3.42566 -0.386848 6.46802 -0.489112 8.5 1.18016ZM8.72613 13.964L14.8036 8.00276C15.5999 7.2224 16.0377 6.18403 16.0377 5.078C16.0377 3.97276 15.5999 2.9336 14.8036 2.15324C13.159 0.540611 10.4839 0.540611 8.84 2.15324C8.65156 2.33732 8.34684 2.33732 8.1592 2.15324C7.33726 1.34614 6.25712 0.943375 5.17778 0.943375C4.09844 0.943375 3.0183 1.34693 2.19637 2.15324C1.40009 2.93438 0.962264 3.97276 0.962264 5.078C0.962264 6.18324 1.40009 7.22162 2.19637 8.00276L8.27307 13.964C8.39816 14.0867 8.60104 14.0867 8.72613 13.964Z" fill="#B7B7B7"/>
</svg>
